<?xml version="1.0" standalone="no"?>
<!DOCTYPE svg PUBLIC "-//W3C//DTD SVG 20010904//EN"
 "http://www.w3.org/TR/2001/REC-SVG-20010904/DTD/svg10.dtd">
<svg version="1.0" xmlns="http://www.w3.org/2000/svg"
 width="700.000000pt" height="700.000000pt" viewBox="0 0 700.000000 700.000000"
 preserveAspectRatio="xMidYMid meet">
<metadata>
Created by potrace 1.11, written by Peter Selinger 2001-2013
</metadata>
<g transform="translate(0.000000,700.000000) scale(0.100000,-0.100000)"
fill="#000000" stroke="none">
<path d="M3367 6840 c-138 -43 -224 -123 -298 -279 -77 -160 -119 -250 -199
-426 -45 -97 -79 -171 -152 -330 -39 -82 -81 -174 -94 -202 -13 -29 -35 -77
-48 -105 -13 -29 -41 -89 -61 -133 -21 -44 -78 -168 -127 -275 -50 -107 -104
-224 -120 -260 -17 -36 -43 -92 -58 -125 -15 -33 -43 -94 -63 -135 -19 -41
-73 -158 -120 -260 -47 -102 -102 -221 -122 -265 -20 -44 -48 -105 -62 -135
-14 -30 -45 -97 -69 -148 -24 -51 -44 -94 -44 -96 0 -2 -27 -61 -60 -130 -33
-70 -60 -128 -60 -130 0 -2 -22 -50 -49 -107 -54 -115 -139 -298 -226 -489
-32 -69 -82 -176 -111 -239 -30 -62 -54 -114 -54 -116 0 -2 -25 -55 -55 -120
-30 -64 -55 -118 -55 -119 0 -3 -76 -169 -125 -271 -69 -146 -134 -287 -140
-305 -1 -3 -22 -48 -46 -100 -25 -52 -85 -182 -134 -287 l-89 -193 -61 -1
c-33 0 -67 -2 -75 -4 -8 -2 -28 -6 -45 -9 -50 -9 -148 -63 -196 -108 -59 -56
-114 -147 -133 -224 -18 -70 -15 -201 4 -249 68 -163 141 -240 285 -299 48
-20 71 -21 652 -24 518 -2 611 -1 669 13 217 50 367 253 351 475 -16 215 -180
395 -386 424 -24 3 -45 7 -46 8 -2 2 10 30 26 63 46 97 116 248 196 425 41 91
97 211 124 268 27 56 49 104 49 106 0 2 24 55 54 117 29 63 90 194 135 292
113 247 120 260 296 642 87 187 171 369 187 404 16 35 44 96 62 135 19 39 45
96 59 126 13 30 82 179 152 330 70 151 151 327 180 390 29 63 72 156 95 205
23 50 64 140 92 200 28 61 65 142 83 180 79 168 113 243 135 293 13 28 26 52
30 52 4 0 17 -24 30 -52 13 -29 44 -96 68 -148 56 -122 94 -202 122 -265 12
-27 37 -81 55 -120 71 -152 112 -240 222 -480 64 -137 137 -297 164 -354 27
-57 49 -105 49 -106 0 -2 21 -47 46 -102 25 -54 167 -359 314 -678 147 -319
283 -614 303 -655 19 -41 60 -129 90 -195 30 -66 70 -154 90 -195 19 -41 87
-190 152 -330 107 -232 163 -353 229 -495 13 -27 22 -51 21 -53 -2 -2 -22 -6
-46 -8 -51 -6 -146 -44 -191 -76 -73 -51 -132 -128 -169 -221 -27 -66 -33
-205 -13 -274 50 -171 185 -298 354 -333 62 -13 1212 -10 1265 3 94 23 207
105 268 193 69 100 93 264 57 383 -60 198 -237 330 -446 331 l-61 0 -58 128
c-32 70 -76 165 -98 212 -22 47 -80 173 -129 280 -87 188 -113 244 -183 395
-18 39 -45 97 -60 130 -15 33 -40 87 -55 120 -15 33 -41 89 -58 125 -16 36
-45 99 -65 140 -57 122 -106 229 -152 330 -24 52 -63 138 -88 190 -24 52 -97
210 -162 350 -65 140 -133 289 -152 330 -20 41 -59 127 -88 190 -29 63 -67
145 -84 183 -17 37 -45 97 -61 133 -17 37 -46 99 -64 138 -19 39 -59 125 -89
191 -30 66 -72 156 -92 200 -50 108 -266 577 -297 645 -48 104 -160 345 -193
415 -52 111 -101 217 -182 395 -144 317 -181 388 -238 443 -121 121 -298 166
-458 117z"/>
</g>
</svg>
